<svg width="122" height="55" viewBox="0 0 122 55" fill="none" xmlns="http://www.w3.org/2000/svg">
<path d="M8.016 3.664C10.3627 3.664 12.4213 4.12267 14.192 5.04C15.984 5.95733 17.36 7.26933 18.32 8.976C19.3013 10.6613 19.792 12.624 19.792 14.864C19.792 17.104 19.3013 19.0667 18.32 20.752C17.36 22.416 15.984 23.7067 14.192 24.624C12.4213 25.5413 10.3627 26 8.016 26H0.208V3.664H8.016ZM7.856 22.192C10.2027 22.192 12.016 21.552 13.296 20.272C14.576 18.992 15.216 17.1893 15.216 14.864C15.216 12.5387 14.576 10.7253 13.296 9.424C12.016 8.10133 10.2027 7.44 7.856 7.44H4.688V22.192H7.856ZM113.806 50.8C113.806 49.4 114.173 48.4167 114.906 47.85C115.64 47.25 116.54 46.95 117.606 46.95C118.673 46.95 119.573 47.2333 120.306 47.8C121.073 48.3667 121.456 49.3667 121.456 50.8C121.456 52.1667 121.073 53.15 120.306 53.75C119.573 54.35 118.673 54.65 117.606 54.65C116.54 54.65 115.64 54.35 114.906 53.75C114.173 53.15 113.806 52.1667 113.806 50.8Z" fill="#B384F9"/>
<path d="M21.9935 17.072C21.9935 15.28 22.3455 13.6907 23.0495 12.304C23.7748 10.9173 24.7455 9.85067 25.9615 9.104C27.1988 8.35733 28.5748 7.984 30.0895 7.984C31.4122 7.984 32.5642 8.25067 33.5455 8.784C34.5482 9.31733 35.3482 9.98933 35.9455 10.8V8.272H40.4575V26H35.9455V23.408C35.3695 24.24 34.5695 24.9333 33.5455 25.488C32.5428 26.0213 31.3802 26.288 30.0575 26.288C28.5642 26.288 27.1988 25.904 25.9615 25.136C24.7455 24.368 23.7748 23.2907 23.0495 21.904C22.3455 20.496 21.9935 18.8853 21.9935 17.072ZM35.9455 17.136C35.9455 16.048 35.7322 15.12 35.3055 14.352C34.8788 13.5627 34.3028 12.9653 33.5775 12.56C32.8522 12.1333 32.0735 11.92 31.2415 11.92C30.4095 11.92 29.6415 12.1227 28.9375 12.528C28.2335 12.9333 27.6575 13.5307 27.2095 14.32C26.7828 15.088 26.5695 16.0053 26.5695 17.072C26.5695 18.1387 26.7828 19.0773 27.2095 19.888C27.6575 20.6773 28.2335 21.2853 28.9375 21.712C29.6628 22.1387 30.4308 22.352 31.2415 22.352C32.0735 22.352 32.8522 22.1493 33.5775 21.744C34.3028 21.3173 34.8788 20.72 35.3055 19.952C35.7322 19.1627 35.9455 18.224 35.9455 17.136ZM52.225 21.872L56.705 8.272H61.473L54.913 26H49.473L42.945 8.272H47.745L52.225 21.872ZM66.2613 6.16C65.4719 6.16 64.8106 5.91467 64.2773 5.424C63.7653 4.912 63.5093 4.28267 63.5093 3.536C63.5093 2.78933 63.7653 2.17067 64.2773 1.68C64.8106 1.168 65.4719 0.911999 66.2613 0.911999C67.0506 0.911999 67.7013 1.168 68.2133 1.68C68.7466 2.17067 69.0133 2.78933 69.0133 3.536C69.0133 4.28267 68.7466 4.912 68.2133 5.424C67.7013 5.91467 67.0506 6.16 66.2613 6.16ZM68.4693 8.272V26H63.9893V8.272H68.4693ZM71.7435 17.072C71.7435 15.28 72.0955 13.6907 72.7995 12.304C73.5248 10.9173 74.5062 9.85067 75.7435 9.104C76.9808 8.35733 78.3568 7.984 79.8715 7.984C81.0235 7.984 82.1222 8.24 83.1675 8.752C84.2128 9.24267 85.0448 9.904 85.6635 10.736V2.32H90.2075V26H85.6635V23.376C85.1088 24.2507 84.3302 24.9547 83.3275 25.488C82.3248 26.0213 81.1622 26.288 79.8395 26.288C78.3462 26.288 76.9808 25.904 75.7435 25.136C74.5062 24.368 73.5248 23.2907 72.7995 21.904C72.0955 20.496 71.7435 18.8853 71.7435 17.072ZM85.6955 17.136C85.6955 16.048 85.4822 15.12 85.0555 14.352C84.6288 13.5627 84.0528 12.9653 83.3275 12.56C82.6022 12.1333 81.8235 11.92 80.9915 11.92C80.1595 11.92 79.3915 12.1227 78.6875 12.528C77.9835 12.9333 77.4075 13.5307 76.9595 14.32C76.5328 15.088 76.3195 16.0053 76.3195 17.072C76.3195 18.1387 76.5328 19.0773 76.9595 19.888C77.4075 20.6773 77.9835 21.2853 78.6875 21.712C79.4128 22.1387 80.1808 22.352 80.9915 22.352C81.8235 22.352 82.6022 22.1493 83.3275 21.744C84.0528 21.3173 84.6288 20.72 85.0555 19.952C85.4822 19.1627 85.6955 18.224 85.6955 17.136ZM16.496 38.576C16.496 39.7707 16.208 40.8907 15.632 41.936C15.0773 42.9813 14.192 43.824 12.976 44.464C11.7813 45.104 10.2667 45.424 8.432 45.424H4.688V54H0.208V31.664H8.432C10.16 31.664 11.632 31.9627 12.848 32.56C14.064 33.1573 14.9707 33.9787 15.568 35.024C16.1867 36.0693 16.496 37.2533 16.496 38.576ZM8.24 41.808C9.47733 41.808 10.3947 41.5307 10.992 40.976C11.5893 40.4 11.888 39.6 11.888 38.576C11.888 36.4 10.672 35.312 8.24 35.312H4.688V41.808H8.24ZM21.9488 34.16C21.1594 34.16 20.4981 33.9147 19.9648 33.424C19.4528 32.912 19.1968 32.2827 19.1968 31.536C19.1968 30.7893 19.4528 30.1707 19.9648 29.68C20.4981 29.168 21.1594 28.912 21.9488 28.912C22.7381 28.912 23.3888 29.168 23.9008 29.68C24.4341 30.1707 24.7008 30.7893 24.7008 31.536C24.7008 32.2827 24.4341 32.912 23.9008 33.424C23.3888 33.9147 22.7381 34.16 21.9488 34.16ZM24.1568 36.272V54H19.6768V36.272H24.1568ZM38.407 36.016C40.519 36.016 42.2257 36.688 43.527 38.032C44.8283 39.3547 45.479 41.2107 45.479 43.6V54H40.999V44.208C40.999 42.8 40.647 41.7227 39.943 40.976C39.239 40.208 38.279 39.824 37.063 39.824C35.8257 39.824 34.8443 40.208 34.119 40.976C33.415 41.7227 33.063 42.8 33.063 44.208V54H28.583V36.272H33.063V38.48C33.6603 37.712 34.4177 37.1147 35.335 36.688C36.2737 36.24 37.2977 36.016 38.407 36.016ZM66.2193 44.752C66.2193 45.392 66.1766 45.968 66.0913 46.48H53.1313C53.2379 47.76 53.6859 48.7627 54.4753 49.488C55.2646 50.2133 56.2353 50.576 57.3873 50.576C59.0513 50.576 60.2353 49.8613 60.9393 48.432H65.7713C65.2593 50.1387 64.2779 51.5467 62.8273 52.656C61.3766 53.744 59.5953 54.288 57.4833 54.288C55.7766 54.288 54.2406 53.9147 52.8753 53.168C51.5313 52.4 50.4753 51.3227 49.7073 49.936C48.9606 48.5493 48.5872 46.9493 48.5872 45.136C48.5872 43.3013 48.9606 41.6907 49.7073 40.304C50.4539 38.9173 51.4993 37.8507 52.8433 37.104C54.1873 36.3573 55.7339 35.984 57.4833 35.984C59.1686 35.984 60.6726 36.3467 61.9953 37.072C63.3393 37.7973 64.3739 38.832 65.0993 40.176C65.8459 41.4987 66.2193 43.024 66.2193 44.752ZM61.5793 43.472C61.5579 42.32 61.1419 41.4027 60.3313 40.72C59.5206 40.016 58.5286 39.664 57.3553 39.664C56.2459 39.664 55.3073 40.0053 54.5393 40.688C53.7926 41.3493 53.3339 42.2773 53.1633 43.472H61.5793ZM68.3372 45.072C68.3372 43.28 68.6892 41.6907 69.3932 40.304C70.1186 38.9173 71.0999 37.8507 72.3373 37.104C73.5746 36.3573 74.9506 35.984 76.4653 35.984C77.6173 35.984 78.7159 36.24 79.7613 36.752C80.8066 37.2427 81.6386 37.904 82.2573 38.736V30.32H86.8013V54H82.2573V51.376C81.7026 52.2507 80.9239 52.9547 79.9213 53.488C78.9186 54.0213 77.7559 54.288 76.4333 54.288C74.9399 54.288 73.5746 53.904 72.3373 53.136C71.0999 52.368 70.1186 51.2907 69.3932 49.904C68.6892 48.496 68.3372 46.8853 68.3372 45.072ZM82.2893 45.136C82.2893 44.048 82.0759 43.12 81.6493 42.352C81.2226 41.5627 80.6466 40.9653 79.9213 40.56C79.1959 40.1333 78.4173 39.92 77.5853 39.92C76.7533 39.92 75.9853 40.1227 75.2812 40.528C74.5773 40.9333 74.0013 41.5307 73.5533 42.32C73.1266 43.088 72.9133 44.0053 72.9133 45.072C72.9133 46.1387 73.1266 47.0773 73.5533 47.888C74.0013 48.6773 74.5773 49.2853 75.2812 49.712C76.0066 50.1387 76.7746 50.352 77.5853 50.352C78.4173 50.352 79.1959 50.1493 79.9213 49.744C80.6466 49.3173 81.2226 48.72 81.6493 47.952C82.0759 47.1627 82.2893 46.224 82.2893 45.136ZM90.0247 45.072C90.0247 43.28 90.3767 41.6907 91.0807 40.304C91.8061 38.9173 92.7768 37.8507 93.9928 37.104C95.2301 36.3573 96.6061 35.984 98.1208 35.984C99.4434 35.984 100.595 36.2507 101.577 36.784C102.579 37.3173 103.379 37.9893 103.977 38.8V36.272H108.489V54H103.977V51.408C103.401 52.24 102.601 52.9333 101.577 53.488C100.574 54.0213 99.4114 54.288 98.0888 54.288C96.5954 54.288 95.2301 53.904 93.9928 53.136C92.7768 52.368 91.8061 51.2907 91.0807 49.904C90.3767 48.496 90.0247 46.8853 90.0247 45.072ZM103.977 45.136C103.977 44.048 103.763 43.12 103.337 42.352C102.91 41.5627 102.334 40.9653 101.609 40.56C100.883 40.1333 100.105 39.92 99.2728 39.92C98.4408 39.92 97.6728 40.1227 96.9688 40.528C96.2648 40.9333 95.6888 41.5307 95.2408 42.32C94.8141 43.088 94.6008 44.0053 94.6008 45.072C94.6008 46.1387 94.8141 47.0773 95.2408 47.888C95.6888 48.6773 96.2648 49.2853 96.9688 49.712C97.6941 50.1387 98.4621 50.352 99.2728 50.352C100.105 50.352 100.883 50.1493 101.609 49.744C102.334 49.3173 102.91 48.72 103.337 47.952C103.763 47.1627 103.977 46.224 103.977 45.136Z" fill="white"/>
</svg>
